<?xml version="1.0" encoding="UTF-8" standalone="no"?>
<!DOCTYPE svg PUBLIC "-//W3C//DTD SVG 1.1//EN"
 "http://www.w3.org/Graphics/SVG/1.1/DTD/svg11.dtd">
<!-- Generated by graphviz version 2.43.0 (0)
 -->
<!-- Title: G Pages: 1 -->
<svg width="1217pt" height="44pt"
 viewBox="0.00 0.00 1217.00 44.00" xmlns="http://www.w3.org/2000/svg" xmlns:xlink="http://www.w3.org/1999/xlink">
<g id="graph0" class="graph" transform="scale(1 1) rotate(0) translate(4 40)">
<title>G</title>
<polygon fill="white" stroke="transparent" points="-4,4 -4,-40 1213,-40 1213,4 -4,4"/>
<!-- CloudBuild -->
<g id="node1" class="node">
<title>CloudBuild</title>
<path fill="none" stroke="#6c8ebf" d="M88,-36C88,-36 12,-36 12,-36 6,-36 0,-30 0,-24 0,-24 0,-12 0,-12 0,-6 6,0 12,0 12,0 88,0 88,0 94,0 100,-6 100,-12 100,-12 100,-24 100,-24 100,-30 94,-36 88,-36"/>
<text text-anchor="middle" x="50" y="-14.3" font-family="Times,serif" font-size="14.00">Cloud Build</text>
</g>
<!-- ArtifactRegistry -->
<g id="node2" class="node">
<title>ArtifactRegistry</title>
<path fill="none" stroke="#6c8ebf" d="M345,-36C345,-36 233,-36 233,-36 227,-36 221,-30 221,-24 221,-24 221,-12 221,-12 221,-6 227,0 233,0 233,0 345,0 345,0 351,0 357,-6 357,-12 357,-12 357,-24 357,-24 357,-30 351,-36 345,-36"/>
<text text-anchor="middle" x="289" y="-14.3" font-family="Times,serif" font-size="14.00">Artifact Registry</text>
</g>
<!-- CloudBuild&#45;&gt;ArtifactRegistry -->
<g id="edge1" class="edge">
<title>CloudBuild&#45;&gt;ArtifactRegistry</title>
<path fill="none" stroke="#000000" d="M100.11,-18C132.08,-18 174.46,-18 210.88,-18"/>
<polygon fill="#000000" stroke="#000000" points="210.98,-21.5 220.98,-18 210.98,-14.5 210.98,-21.5"/>
<text text-anchor="middle" x="160.5" y="-21.8" font-family="Times,serif" font-size="14.00" fill="#000000">Push Image</text>
</g>
<!-- VulnerabilityScan -->
<g id="node3" class="node">
<title>VulnerabilityScan</title>
<path fill="none" stroke="#6c8ebf" d="M612,-36C612,-36 489,-36 489,-36 483,-36 477,-30 477,-24 477,-24 477,-12 477,-12 477,-6 483,0 489,0 489,0 612,0 612,0 618,0 624,-6 624,-12 624,-12 624,-24 624,-24 624,-30 618,-36 612,-36"/>
<text text-anchor="middle" x="550.5" y="-14.3" font-family="Times,serif" font-size="14.00">Vulnerability Scan</text>
</g>
<!-- ArtifactRegistry&#45;&gt;VulnerabilityScan -->
<g id="edge2" class="edge">
<title>ArtifactRegistry&#45;&gt;VulnerabilityScan</title>
<path fill="none" stroke="#000000" d="M357.17,-18C390.52,-18 431.12,-18 466.41,-18"/>
<polygon fill="#000000" stroke="#000000" points="466.69,-21.5 476.69,-18 466.69,-14.5 466.69,-21.5"/>
<text text-anchor="middle" x="417" y="-21.8" font-family="Times,serif" font-size="14.00" fill="#000000">Scan Image</text>
</g>
<!-- BinaryAuth -->
<g id="node4" class="node">
<title>BinaryAuth</title>
<path fill="none" stroke="#6c8ebf" d="M856,-36C856,-36 715,-36 715,-36 709,-36 703,-30 703,-24 703,-24 703,-12 703,-12 703,-6 709,0 715,0 715,0 856,0 856,0 862,0 868,-6 868,-12 868,-12 868,-24 868,-24 868,-30 862,-36 856,-36"/>
<text text-anchor="middle" x="785.5" y="-14.3" font-family="Times,serif" font-size="14.00">Binary Authorization</text>
</g>
<!-- VulnerabilityScan&#45;&gt;BinaryAuth -->
<g id="edge3" class="edge">
<title>VulnerabilityScan&#45;&gt;BinaryAuth</title>
<path fill="none" stroke="#000000" d="M624.26,-18C646.01,-18 670.14,-18 692.94,-18"/>
<polygon fill="#000000" stroke="#000000" points="692.96,-21.5 702.96,-18 692.96,-14.5 692.96,-21.5"/>
<text text-anchor="middle" x="663.5" y="-21.8" font-family="Times,serif" font-size="14.00" fill="#000000">Verify</text>
</g>
<!-- GKE -->
<g id="node5" class="node">
<title>GKE</title>
<path fill="none" stroke="#6c8ebf" d="M1197,-36C1197,-36 966,-36 966,-36 960,-36 954,-30 954,-24 954,-24 954,-12 954,-12 954,-6 960,0 966,0 966,0 1197,0 1197,0 1203,0 1209,-6 1209,-12 1209,-12 1209,-24 1209,-24 1209,-30 1203,-36 1197,-36"/>
<text text-anchor="middle" x="1081.5" y="-14.3" font-family="Times,serif" font-size="14.00">Google Kubernetes Engine (GKE)</text>
</g>
<!-- BinaryAuth&#45;&gt;GKE -->
<g id="edge4" class="edge">
<title>BinaryAuth&#45;&gt;GKE</title>
<path fill="none" stroke="#000000" d="M868,-18C891.48,-18 917.76,-18 943.62,-18"/>
<polygon fill="#000000" stroke="#000000" points="943.89,-21.5 953.89,-18 943.89,-14.5 943.89,-21.5"/>
<text text-anchor="middle" x="911" y="-21.8" font-family="Times,serif" font-size="14.00" fill="#000000">Deploy</text>
</g>
</g>
</svg>
