<?xml version="1.0" encoding="UTF-8" standalone="no"?>
<!DOCTYPE svg PUBLIC "-//W3C//DTD SVG 1.1//EN"
 "http://www.w3.org/Graphics/SVG/1.1/DTD/svg11.dtd">
<!-- Generated by graphviz version 2.43.0 (0)
 -->
<!-- Title: G Pages: 1 -->
<svg width="976pt" height="46pt"
 viewBox="0.00 0.00 976.00 46.00" xmlns="http://www.w3.org/2000/svg" xmlns:xlink="http://www.w3.org/1999/xlink">
<g id="graph0" class="graph" transform="scale(1 1) rotate(0) translate(4 42)">
<title>G</title>
<polygon fill="white" stroke="transparent" points="-4,4 -4,-42 972,-42 972,4 -4,4"/>
<!-- CodeCheckin -->
<g id="node1" class="node">
<title>CodeCheckin</title>
<path fill="none" stroke="#6c8ebf" d="M204,-38C204,-38 12,-38 12,-38 6,-38 0,-32 0,-26 0,-26 0,-12 0,-12 0,-6 6,0 12,0 12,0 204,0 204,0 210,0 216,-6 216,-12 216,-12 216,-26 216,-26 216,-32 210,-38 204,-38"/>
<text text-anchor="middle" x="108" y="-22.8" font-family="Times,serif" font-size="14.00">Code Check&#45;in</text>
<text text-anchor="middle" x="108" y="-7.8" font-family="Times,serif" font-size="14.00">(Cloud Source Repositories)</text>
</g>
<!-- AutomatedTesting -->
<g id="node2" class="node">
<title>AutomatedTesting</title>
<path fill="none" stroke="#6c8ebf" d="M455,-38C455,-38 318,-38 318,-38 312,-38 306,-32 306,-26 306,-26 306,-12 306,-12 306,-6 312,0 318,0 318,0 455,0 455,0 461,0 467,-6 467,-12 467,-12 467,-26 467,-26 467,-32 461,-38 455,-38"/>
<text text-anchor="middle" x="386.5" y="-22.8" font-family="Times,serif" font-size="14.00">Automated Testing</text>
<text text-anchor="middle" x="386.5" y="-7.8" font-family="Times,serif" font-size="14.00">(Unit Tests, Linting)</text>
</g>
<!-- CodeCheckin&#45;&gt;AutomatedTesting -->
<g id="edge1" class="edge">
<title>CodeCheckin&#45;&gt;AutomatedTesting</title>
<path fill="none" stroke="#000000" d="M216.3,-19C242.45,-19 270.16,-19 295.41,-19"/>
<polygon fill="#000000" stroke="#000000" points="295.7,-22.5 305.7,-19 295.7,-15.5 295.7,-22.5"/>
<text text-anchor="middle" x="261" y="-22.8" font-family="Times,serif" font-size="14.00" fill="#000000">Trigger</text>
</g>
<!-- Build -->
<g id="node3" class="node">
<title>Build</title>
<path fill="none" stroke="#6c8ebf" d="M676,-38C676,-38 590,-38 590,-38 584,-38 578,-32 578,-26 578,-26 578,-12 578,-12 578,-6 584,0 590,0 590,0 676,0 676,0 682,0 688,-6 688,-12 688,-12 688,-26 688,-26 688,-32 682,-38 676,-38"/>
<text text-anchor="middle" x="633" y="-22.8" font-family="Times,serif" font-size="14.00">Build</text>
<text text-anchor="middle" x="633" y="-7.8" font-family="Times,serif" font-size="14.00">(Cloud Build)</text>
</g>
<!-- AutomatedTesting&#45;&gt;Build -->
<g id="edge2" class="edge">
<title>AutomatedTesting&#45;&gt;Build</title>
<path fill="none" stroke="#000000" d="M467.22,-19C499.77,-19 536.92,-19 567.7,-19"/>
<polygon fill="#000000" stroke="#000000" points="567.87,-22.5 577.87,-19 567.87,-15.5 567.87,-22.5"/>
<text text-anchor="middle" x="522.5" y="-22.8" font-family="Times,serif" font-size="14.00" fill="#000000">Tests Pass</text>
</g>
<!-- ArtifactStorage -->
<g id="node4" class="node">
<title>ArtifactStorage</title>
<path fill="none" stroke="#6c8ebf" d="M956,-38C956,-38 834,-38 834,-38 828,-38 822,-32 822,-26 822,-26 822,-12 822,-12 822,-6 828,0 834,0 834,0 956,0 956,0 962,0 968,-6 968,-12 968,-12 968,-26 968,-26 968,-32 962,-38 956,-38"/>
<text text-anchor="middle" x="895" y="-22.8" font-family="Times,serif" font-size="14.00">Artifact Storage</text>
<text text-anchor="middle" x="895" y="-7.8" font-family="Times,serif" font-size="14.00">(Artifact Registry)</text>
</g>
<!-- Build&#45;&gt;ArtifactStorage -->
<g id="edge3" class="edge">
<title>Build&#45;&gt;ArtifactStorage</title>
<path fill="none" stroke="#000000" d="M688.19,-19C723.86,-19 771.24,-19 811.54,-19"/>
<polygon fill="#000000" stroke="#000000" points="811.63,-22.5 821.63,-19 811.63,-15.5 811.63,-22.5"/>
<text text-anchor="middle" x="755" y="-22.8" font-family="Times,serif" font-size="14.00" fill="#000000">Store Artifact</text>
</g>
</g>
</svg>
