<?xml version="1.0" encoding="UTF-8" standalone="no"?>
<!DOCTYPE svg PUBLIC "-//W3C//DTD SVG 1.1//EN"
 "http://www.w3.org/Graphics/SVG/1.1/DTD/svg11.dtd">
<!-- Generated by graphviz version 2.43.0 (0)
 -->
<!-- Title: G Pages: 1 -->
<svg width="948pt" height="46pt"
 viewBox="0.00 0.00 948.00 46.00" xmlns="http://www.w3.org/2000/svg" xmlns:xlink="http://www.w3.org/1999/xlink">
<g id="graph0" class="graph" transform="scale(1 1) rotate(0) translate(4 42)">
<title>G</title>
<polygon fill="white" stroke="transparent" points="-4,4 -4,-42 944,-42 944,4 -4,4"/>
<!-- CodeRepo -->
<g id="node1" class="node">
<title>CodeRepo</title>
<path fill="none" stroke="#6c8ebf" d="M204,-38C204,-38 12,-38 12,-38 6,-38 0,-32 0,-26 0,-26 0,-12 0,-12 0,-6 6,0 12,0 12,0 204,0 204,0 210,0 216,-6 216,-12 216,-12 216,-26 216,-26 216,-32 210,-38 204,-38"/>
<text text-anchor="middle" x="108" y="-22.8" font-family="Times,serif" font-size="14.00">Code Repository</text>
<text text-anchor="middle" x="108" y="-7.8" font-family="Times,serif" font-size="14.00">(Cloud Source Repositories)</text>
</g>
<!-- CloudBuild -->
<g id="node2" class="node">
<title>CloudBuild</title>
<path fill="none" stroke="#6c8ebf" d="M394,-37C394,-37 318,-37 318,-37 312,-37 306,-31 306,-25 306,-25 306,-13 306,-13 306,-7 312,-1 318,-1 318,-1 394,-1 394,-1 400,-1 406,-7 406,-13 406,-13 406,-25 406,-25 406,-31 400,-37 394,-37"/>
<text text-anchor="middle" x="356" y="-15.3" font-family="Times,serif" font-size="14.00">Cloud Build</text>
</g>
<!-- CodeRepo&#45;&gt;CloudBuild -->
<g id="edge1" class="edge">
<title>CodeRepo&#45;&gt;CloudBuild</title>
<path fill="none" stroke="#000000" d="M216.18,-19C243.37,-19 271.59,-19 295.44,-19"/>
<polygon fill="#000000" stroke="#000000" points="295.72,-22.5 305.72,-19 295.72,-15.5 295.72,-22.5"/>
<text text-anchor="middle" x="261" y="-22.8" font-family="Times,serif" font-size="14.00" fill="#000000">Trigger</text>
</g>
<!-- ArtifactRegistry -->
<g id="node3" class="node">
<title>ArtifactRegistry</title>
<path fill="none" stroke="#6c8ebf" d="M664,-37C664,-37 552,-37 552,-37 546,-37 540,-31 540,-25 540,-25 540,-13 540,-13 540,-7 546,-1 552,-1 552,-1 664,-1 664,-1 670,-1 676,-7 676,-13 676,-13 676,-25 676,-25 676,-31 670,-37 664,-37"/>
<text text-anchor="middle" x="608" y="-15.3" font-family="Times,serif" font-size="14.00">Artifact Registry</text>
</g>
<!-- CloudBuild&#45;&gt;ArtifactRegistry -->
<g id="edge2" class="edge">
<title>CloudBuild&#45;&gt;ArtifactRegistry</title>
<path fill="none" stroke="#000000" d="M406.09,-19C441.23,-19 489.23,-19 529.51,-19"/>
<polygon fill="#000000" stroke="#000000" points="529.57,-22.5 539.57,-19 529.57,-15.5 529.57,-22.5"/>
<text text-anchor="middle" x="473" y="-22.8" font-family="Times,serif" font-size="14.00" fill="#000000">Store Artifact</text>
</g>
<!-- Deployment -->
<g id="node4" class="node">
<title>Deployment</title>
<path fill="none" stroke="#6c8ebf" d="M928,-38C928,-38 774,-38 774,-38 768,-38 762,-32 762,-26 762,-26 762,-12 762,-12 762,-6 768,0 774,0 774,0 928,0 928,0 934,0 940,-6 940,-12 940,-12 940,-26 940,-26 940,-32 934,-38 928,-38"/>
<text text-anchor="middle" x="851" y="-22.8" font-family="Times,serif" font-size="14.00">Deployment</text>
<text text-anchor="middle" x="851" y="-7.8" font-family="Times,serif" font-size="14.00">(GKE, Cloud Run, etc.)</text>
</g>
<!-- ArtifactRegistry&#45;&gt;Deployment -->
<g id="edge3" class="edge">
<title>ArtifactRegistry&#45;&gt;Deployment</title>
<path fill="none" stroke="#000000" d="M676.13,-19C699.49,-19 726.21,-19 751.57,-19"/>
<polygon fill="#000000" stroke="#000000" points="751.59,-22.5 761.59,-19 751.59,-15.5 751.59,-22.5"/>
<text text-anchor="middle" x="719" y="-22.8" font-family="Times,serif" font-size="14.00" fill="#000000">Deploy</text>
</g>
</g>
</svg>
