<?xml version="1.0" encoding="UTF-8" standalone="no"?>
<!DOCTYPE svg PUBLIC "-//W3C//DTD SVG 1.1//EN"
 "http://www.w3.org/Graphics/SVG/1.1/DTD/svg11.dtd">
<!-- Generated by graphviz version 2.43.0 (0)
 -->
<!-- Title: G Pages: 1 -->
<svg width="1036pt" height="46pt"
 viewBox="0.00 0.00 1036.00 46.00" xmlns="http://www.w3.org/2000/svg" xmlns:xlink="http://www.w3.org/1999/xlink">
<g id="graph0" class="graph" transform="scale(1 1) rotate(0) translate(4 42)">
<title>G</title>
<polygon fill="white" stroke="transparent" points="-4,4 -4,-42 1032,-42 1032,4 -4,4"/>
<!-- CodeRepo -->
<g id="node1" class="node">
<title>CodeRepo</title>
<path fill="none" stroke="#6c8ebf" d="M204,-38C204,-38 12,-38 12,-38 6,-38 0,-32 0,-26 0,-26 0,-12 0,-12 0,-6 6,0 12,0 12,0 204,0 204,0 210,0 216,-6 216,-12 216,-12 216,-26 216,-26 216,-32 210,-38 204,-38"/>
<text text-anchor="middle" x="108" y="-22.8" font-family="Times,serif" font-size="14.00">Code Repository</text>
<text text-anchor="middle" x="108" y="-7.8" font-family="Times,serif" font-size="14.00">(Cloud Source Repositories)</text>
</g>
<!-- Terraform -->
<g id="node2" class="node">
<title>Terraform</title>
<path fill="none" stroke="#6c8ebf" d="M585,-37C585,-37 418,-37 418,-37 412,-37 406,-31 406,-25 406,-25 406,-13 406,-13 406,-7 412,-1 418,-1 418,-1 585,-1 585,-1 591,-1 597,-7 597,-13 597,-13 597,-25 597,-25 597,-31 591,-37 585,-37"/>
<text text-anchor="middle" x="501.5" y="-15.3" font-family="Times,serif" font-size="14.00">Terraform Configuration</text>
</g>
<!-- CodeRepo&#45;&gt;Terraform -->
<g id="edge1" class="edge">
<title>CodeRepo&#45;&gt;Terraform</title>
<path fill="none" stroke="#000000" d="M216.24,-19C272.07,-19 340.08,-19 395.58,-19"/>
<polygon fill="#000000" stroke="#000000" points="395.79,-22.5 405.79,-19 395.79,-15.5 395.79,-22.5"/>
<text text-anchor="middle" x="311" y="-22.8" font-family="Times,serif" font-size="14.00" fill="#000000">Terraform Plan/Apply</text>
</g>
<!-- CloudResources -->
<g id="node3" class="node">
<title>CloudResources</title>
<path fill="none" stroke="#6c8ebf" d="M1016,-38C1016,-38 790,-38 790,-38 784,-38 778,-32 778,-26 778,-26 778,-12 778,-12 778,-6 784,0 790,0 790,0 1016,0 1016,0 1022,0 1028,-6 1028,-12 1028,-12 1028,-26 1028,-26 1028,-32 1022,-38 1016,-38"/>
<text text-anchor="middle" x="903" y="-22.8" font-family="Times,serif" font-size="14.00">Google Cloud Resources</text>
<text text-anchor="middle" x="903" y="-7.8" font-family="Times,serif" font-size="14.00">(Compute, Storage, Networking)</text>
</g>
<!-- Terraform&#45;&gt;CloudResources -->
<g id="edge2" class="edge">
<title>Terraform&#45;&gt;CloudResources</title>
<path fill="none" stroke="#000000" d="M597.18,-19C648,-19 711.52,-19 767.4,-19"/>
<polygon fill="#000000" stroke="#000000" points="767.74,-22.5 777.74,-19 767.74,-15.5 767.74,-22.5"/>
<text text-anchor="middle" x="687.5" y="-22.8" font-family="Times,serif" font-size="14.00" fill="#000000">Provision Resources</text>
</g>
</g>
</svg>
